<svg id="Capa_1" enable-background="new 0 0 512 512" height="512" viewBox="0 0 512 512" width="512" xmlns="http://www.w3.org/2000/svg"><g><path d="m372.628 256 139.372 139.372v-278.743z"/><path d="m139.372 256-139.372-139.372v278.743z"/><path d="m496.632 422.43-145.216-145.217-37.102 37.102c-15.577 15.576-36.286 24.154-58.314 24.154s-42.738-8.578-58.314-24.154l-37.102-37.102-145.216 145.217c-8.112 8.112-13.235 18.413-14.829 29.57h510.923c-1.595-11.157-6.718-21.458-14.83-29.57z"/><path d="m15.368 89.57 203.531 203.531c9.91 9.909 23.086 15.367 37.101 15.367s27.191-5.458 37.101-15.367l203.531-203.531c8.111-8.112 13.235-18.413 14.829-29.57h-510.922c1.594 11.157 6.717 21.458 14.829 29.57zm195.632 60.43h-30v-30h30zm60 0h-30v-30h30zm60 0h-30v-30h30z"/></g></svg>